<?xml version="1.0" encoding="UTF-8"?>
<svg version="1.1" xmlns="http://www.w3.org/2000/svg" width="200" height="200">
<path d="M0 0 C66 0 132 0 200 0 C200 66 200 132 200 200 C134 200 68 200 0 200 C0 134 0 68 0 0 Z " fill="#171517" transform="translate(0,0)"/>
<path d="M0 0 C66 0 132 0 200 0 C200 66 200 132 200 200 C134 200 68 200 0 200 C0 134 0 68 0 0 Z M25 40 C7.35654599 61.17914618 2.53037724 87.18143717 4 114 C6.60636967 137.9902445 20.52054691 160.1102537 38.8046875 175.359375 C61.49921031 192.31969454 87.45917906 199.19852581 115.63183594 195.67041016 C140.00213061 191.5854751 163.83591913 177.3283796 178.5625 157.4375 C193.53761765 134.957451 200.25258847 107.87933381 194.92358398 81.06103516 C190.52086812 62.39316606 181.19965181 46.82935997 168 33 C167.47277344 32.39800781 166.94554687 31.79601562 166.40234375 31.17578125 C151.68492408 15.02802411 127.98319529 5.70385377 106.49609375 4.65625 C74.11807745 3.79201846 46.68357896 16.27521993 25 40 Z " fill="#FBFDFC" transform="translate(0,0)"/>
<path d="M0 0 C15.31542084 13.21962641 25.47403168 31.69280329 27.16845703 52.02099609 C28.41812219 74.34242103 22.19441351 93.62212732 7.6875 110.7265625 C-6.80164989 126.12128426 -27.42635814 135.58996288 -48.52880859 136.40283203 C-71.5850429 136.75284115 -91.84912002 127.49591406 -108.625 111.875 C-123.7757206 96.04548367 -129.68116179 76.10566654 -129.26953125 54.55078125 C-129.00599485 48.1894181 -127.65873868 42.14128251 -126 36 C-125.01 36 -124.02 36 -123 36 C-123 36.99 -123 37.98 -123 39 C-122.2575 38.7525 -122.2575 38.7525 -121.5 38.5 C-117.90190467 37.78038093 -114.67460767 37.8221964 -111 38 C-109 40 -109 40 -109 46 C-112.96 46 -116.92 46 -121 46 C-121 46.66 -121 47.32 -121 48 C-116.38 48 -111.76 48 -107 48 C-107.66 53.61 -108.32 59.22 -109 65 C-108.34 65.33 -107.68 65.66 -107 66 C-111.29 66 -115.58 66 -120 66 C-120.020625 67.27875 -120.04125 68.5575 -120.0625 69.875 C-120.07410156 70.59429687 -120.08570313 71.31359375 -120.09765625 72.0546875 C-120.12649242 74.08185404 -120.12649242 74.08185404 -119 76 C-117.2984375 76.185625 -117.2984375 76.185625 -115.5625 76.375 C-114.386875 76.58125 -113.21125 76.7875 -112 77 C-110.5625 79.0625 -110.5625 79.0625 -110 81 C-110.928125 81.309375 -110.928125 81.309375 -111.875 81.625 C-114.89772976 83.58088396 -115.22844916 85.56309171 -116 89 C-115.67 89.99 -115.34 90.98 -115 92 C-114.34 92.33 -113.68 92.66 -113 93 C-113.33 92.34 -113.66 91.68 -114 91 C-114.1875 88 -114.1875 88 -114 85 C-112 83 -112 83 -109.5625 82.625 C-107 83 -107 83 -105.1875 85 C-104.5996875 85.99 -104.5996875 85.99 -104 87 C-104.99 87.99 -104.99 87.99 -106 89 C-106.66 88.34 -107.32 87.68 -108 87 C-109.485 86.505 -109.485 86.505 -111 86 C-110.71710528 88.25111973 -110.42335307 90.50087686 -110.125 92.75 C-109.96257812 94.00296875 -109.80015625 95.2559375 -109.6328125 96.546875 C-108.95609513 100.23957966 -108.40216296 102.92141311 -105.375 105.25 C-100.6323619 106.74767519 -95.99089935 106.17868677 -91.1875 105.3125 C-88 105 -88 105 -86 106.125 C-85 108 -85 108 -85.25 110.625 C-86 113 -86 113 -87 114 C-90.5 114.125 -90.5 114.125 -94 114 C-94.33 113.67 -94.66 113.34 -95 113 C-95.33 113.66 -95.66 114.32 -96 115 C-91.98195309 115.84098656 -88.98196457 116.05404945 -85 115 C-84.06758264 110.34354883 -84.06758264 110.34354883 -84.5625 105.6875 C-85.99697457 103.70594068 -85.99697457 103.70594068 -89.0625 103 C-92 102 -92 102 -93 100.125 C-93 97.57952098 -92.30913891 96.15622879 -91 94 C-90.01 94.99 -90.01 94.99 -89 96 C-88.67 95.67 -88.34 95.34 -88 95 C-86.06989058 94.62624205 -84.13033152 94.30070427 -82.1875 94 C-78.02776331 93.37048478 -78.02776331 93.37048478 -73.9296875 92.4453125 C-71.55953261 91.89835368 -69.36807833 91.86766794 -66.9375 91.875 C-66.08027344 91.87242187 -65.22304687 91.86984375 -64.33984375 91.8671875 C-60.39503385 92.09109991 -58.63359437 93.25190153 -56 96 C-53.2201184 97.3899408 -51.0813674 97.18488204 -48 97 C-44.79523376 95.79255056 -44.79523376 95.79255056 -43 93 C-36.16058281 90.72019427 -29.7556491 92.03472026 -23 94 C-19.95488632 94.35824867 -17.00085105 94.68624113 -14 94 C-11.97963553 92.20145047 -11.09705718 90.69020898 -10.71911621 88.00253296 C-10.60186092 85.44496032 -10.58442795 82.90398756 -10.6015625 80.34375 C-10.59869232 79.40446655 -10.59582214 78.46518311 -10.59286499 77.49743652 C-10.59082568 75.51374711 -10.59634621 73.53003754 -10.60888672 71.54638672 C-10.62494216 68.5109356 -10.6090334 65.47681598 -10.58984375 62.44140625 C-10.59182621 60.5130179 -10.59566993 58.58463037 -10.6015625 56.65625 C-10.59548981 55.74887085 -10.58941711 54.8414917 -10.5831604 53.90661621 C-10.62294475 50.34034512 -10.66404617 47.70410943 -12.21240234 44.45898438 C-14.2812855 42.53806505 -14.2812855 42.53806505 -19 42 C-19 56.52 -19 71.04 -19 86 C-19.66 85.67 -20.32 85.34 -21 85 C-21.00410889 83.71834961 -21.00821777 82.43669922 -21.01245117 81.11621094 C-21.03422743 76.35978002 -21.08850165 71.60417813 -21.15258789 66.84814453 C-21.17578102 64.78995714 -21.19016668 62.73165085 -21.19555664 60.67333984 C-21.20483655 57.71376332 -21.24580585 54.75606035 -21.29296875 51.796875 C-21.2890361 50.87694763 -21.28510345 49.95702026 -21.28105164 49.00921631 C-21.354746 43.69873005 -21.354746 43.69873005 -24.35668945 39.45019531 C-29.02063836 36.89142035 -33.00174298 36.87862241 -38.1875 36.9375 C-38.93708984 36.94201172 -39.68667969 36.94652344 -40.45898438 36.95117188 C-42.30602383 36.96293646 -44.15302213 36.98087135 -46 37 C-46.12375 36.360625 -46.2475 35.72125 -46.375 35.0625 C-46.684375 34.0415625 -46.684375 34.0415625 -47 33 C-47.66 32.67 -48.32 32.34 -49 32 C-48.67 31.01 -48.34 30.02 -48 29 C-46.95199219 28.94392578 -46.95199219 28.94392578 -45.8828125 28.88671875 C-44.97273438 28.82097656 -44.06265625 28.75523438 -43.125 28.6875 C-42.22007813 28.62949219 -41.31515625 28.57148437 -40.3828125 28.51171875 C-37.63778399 28.2117961 -37.63778399 28.2117961 -36 25 C-35.61111881 20.4485345 -35.67085989 15.88759972 -35.68432617 11.3215332 C-35.687484 9.07388737 -35.66402961 6.82756104 -35.63867188 4.58007812 C-35.63639853 3.14843916 -35.63569555 1.71679666 -35.63671875 0.28515625 C-35.63373779 -1.01542725 -35.63075684 -2.31601074 -35.62768555 -3.65600586 C-36.0175925 -7.1580095 -36.49548863 -8.57298248 -39 -11 C-41.54514031 -11.70532485 -41.54514031 -11.70532485 -44.4375 -11.75 C-45.49839844 -11.80542969 -46.55929688 -11.86085938 -47.65234375 -11.91796875 C-52.77114747 -12.04340035 -57.88032989 -12.06939312 -63 -12 C-64.32 -12 -65.64 -12 -67 -12 C-67.495 -12.99 -67.495 -12.99 -68 -14 C-68.99 -14.33 -69.98 -14.66 -71 -15 C-47.42727814 -26.06474699 -19.0655769 -15.33108246 0 0 Z " fill="#131213" transform="translate(151,42)"/>
<path d="M0 0 C3.45731563 2.88026727 6.74567918 5.89386191 10 9 C10.90298828 9.79083984 10.90298828 9.79083984 11.82421875 10.59765625 C26.54807408 24.01730062 37.01101819 46.94783879 38.15527344 66.67724609 C39.34254409 96.41297934 32.16234769 120.9950953 11.84375 143.375 C-3.90019575 159.7841829 -27.69008753 171.74880902 -50.67578125 172.23828125 C-79.32756871 172.72078756 -104.48679002 165.4330594 -125.69921875 145.296875 C-126.83810547 144.15992188 -126.83810547 144.15992188 -128 143 C-129.15435547 141.86304688 -129.15435547 141.86304688 -130.33203125 140.703125 C-147.70909321 122.58598374 -154.54701491 98.30287387 -154.41967773 73.7512207 C-153.84322725 48.02966624 -142.97691041 26.14242021 -125 8 C-124.195625 7.18273437 -123.39125 6.36546875 -122.5625 5.5234375 C-89.62992215 -26.00083933 -35.57916065 -27.27904351 0 0 Z M-125 24 C-139.14516942 42.58374873 -145.21088431 64.88531293 -142.78173828 88.08447266 C-140.16998511 106.56870817 -132.13513107 122.82137512 -119 136 C-118.26265625 136.76054687 -117.5253125 137.52109375 -116.765625 138.3046875 C-100.1870131 154.38260307 -77.81011579 161.43665318 -55.11206055 161.36645508 C-30.51367979 160.81605353 -9.47572664 149.46697475 7.46484375 131.94140625 C22.47596368 114.5248064 28.34964381 92.70900475 27.1640625 70.15332031 C25.54304706 48.87749262 15.79674483 31.05186112 1 16 C0.31421875 15.30132812 -0.3715625 14.60265625 -1.078125 13.8828125 C-16.46377581 -0.76204772 -38.56219452 -8.56222124 -59.60351562 -8.35351562 C-85.27742252 -7.54031495 -108.32792087 4.77932278 -125 24 Z " fill="#111011" transform="translate(158,24)"/>
<path d="M0 0 C19.16887806 15.37694447 31.63070621 34.9490689 34.5625 59.625 C36.265514 81.9770588 31.06173823 104.82303664 16.21142578 122.20654297 C1.26539301 138.91727623 -19.38877782 150.98427108 -42.02099609 152.83642578 C-65.15954196 154.01339101 -88.55590385 148.18383486 -106.2800293 132.59716797 C-108.73602787 130.33797795 -111.08954574 127.99691297 -113.4375 125.625 C-114.17742187 124.90699219 -114.91734375 124.18898437 -115.6796875 123.44921875 C-130.252892 108.39402111 -135.82771553 86.91263751 -135.73999023 66.48120117 C-135.23705332 44.20460483 -126.11236671 24.32612276 -110.4375 8.625 C-109.67824219 7.85414062 -108.91898438 7.08328125 -108.13671875 6.2890625 C-78.51027799 -22.1251671 -32.63925425 -23.5519523 0 0 Z M-107.4375 15.625 C-108.06140625 16.23730469 -108.6853125 16.84960938 -109.328125 17.48046875 C-123.66915396 32.62898808 -129.15508677 52.68423184 -128.68359375 73.0625 C-127.81032805 93.742822 -118.84323974 111.24397859 -104 125.46875 C-86.16232596 140.47850011 -64.61005092 147.35896434 -41.4375 145.625 C-21.0475078 143.23251677 -1.61537687 132.25865426 11.5625 116.625 C24.42373421 99.93166397 29.08463092 80.4616063 27.5625 59.625 C24.91347493 39.61244345 14.98687329 21.60551155 -0.4375 8.625 C-34.02683051 -17.05503938 -77.4109553 -14.34830615 -107.4375 15.625 Z " fill="#F9F8F8" transform="translate(150.4375,32.375)"/>
<path d="M0 0 C15.31542084 13.21962641 25.47403168 31.69280329 27.16845703 52.02099609 C27.93855803 65.77648214 26.39620044 79.64871639 20 92 C18.68 92 17.36 92 16 92 C14.94410931 90.36816893 13.9563874 88.69207001 13 87 C11.08425497 84.89711278 9.05885425 82.96734962 7 81 C8 78 8 78 9 76 C11.97 76 14.94 76 18 76 C19.13917218 72.58248347 19.11338481 69.96512063 19.09765625 66.36328125 C19.09443359 65.06455078 19.09121094 63.76582031 19.08789062 62.42773438 C19.07953531 61.05598892 19.07107037 59.68424413 19.0625 58.3125 C19.05748335 56.92903805 19.05292073 55.54557437 19.04882812 54.16210938 C19.03702529 50.77469605 19.02056019 47.38736967 19 44 C17.68 43.34 16.36 42.68 15 42 C15 43.98 15 45.96 15 48 C12.6875 48.625 12.6875 48.625 10 49 C8.515 48.01 8.515 48.01 7 47 C7 47.66 7 48.32 7 49 C5.33388095 49.042721 3.66617115 49.04063832 2 49 C1 48 1 48 0.9375 44.9375 C0.958125 43.968125 0.97875 42.99875 1 42 C-0.65 42.33 -2.3 42.66 -4 43 C-4.33 45.31 -4.66 47.62 -5 50 C-7.25 49.875 -7.25 49.875 -10 49 C-11.33333333 47 -12.66666667 45 -14 43 C-15.65 42.67 -17.3 42.34 -19 42 C-19 56.52 -19 71.04 -19 86 C-19.99 85.505 -19.99 85.505 -21 85 C-21.00410889 83.71834961 -21.00821777 82.43669922 -21.01245117 81.11621094 C-21.03422743 76.35978002 -21.08850165 71.60417813 -21.15258789 66.84814453 C-21.17578102 64.78995714 -21.19016668 62.73165085 -21.19555664 60.67333984 C-21.20483655 57.71376332 -21.24580585 54.75606035 -21.29296875 51.796875 C-21.2890361 50.87694763 -21.28510345 49.95702026 -21.28105164 49.00921631 C-21.354746 43.69873005 -21.354746 43.69873005 -24.35668945 39.45019531 C-29.02063836 36.89142035 -33.00174298 36.87862241 -38.1875 36.9375 C-38.93708984 36.94201172 -39.68667969 36.94652344 -40.45898438 36.95117188 C-42.30602383 36.96293646 -44.15302213 36.98087135 -46 37 C-46.12375 36.360625 -46.2475 35.72125 -46.375 35.0625 C-46.58125 34.381875 -46.7875 33.70125 -47 33 C-47.66 32.67 -48.32 32.34 -49 32 C-48.67 31.01 -48.34 30.02 -48 29 C-46.95199219 28.94392578 -46.95199219 28.94392578 -45.8828125 28.88671875 C-44.97273438 28.82097656 -44.06265625 28.75523438 -43.125 28.6875 C-42.22007813 28.62949219 -41.31515625 28.57148437 -40.3828125 28.51171875 C-37.63778399 28.2117961 -37.63778399 28.2117961 -36 25 C-35.61111881 20.4485345 -35.67085989 15.88759972 -35.68432617 11.3215332 C-35.687484 9.07388737 -35.66402961 6.82756104 -35.63867188 4.58007812 C-35.63639853 3.14843916 -35.63569555 1.71679666 -35.63671875 0.28515625 C-35.63373779 -1.01542725 -35.63075684 -2.31601074 -35.62768555 -3.65600586 C-36.0175925 -7.1580095 -36.49548863 -8.57298248 -39 -11 C-41.54514031 -11.70532485 -41.54514031 -11.70532485 -44.4375 -11.75 C-45.49839844 -11.80542969 -46.55929688 -11.86085938 -47.65234375 -11.91796875 C-52.77114747 -12.04340035 -57.88032989 -12.06939312 -63 -12 C-64.32 -12 -65.64 -12 -67 -12 C-67.33 -12.66 -67.66 -13.32 -68 -14 C-68.99 -14.33 -69.98 -14.66 -71 -15 C-47.42727814 -26.06474699 -19.0655769 -15.33108246 0 0 Z M15 92 C15.66 92.66 16.32 93.32 17 94 C16.34 94 15.68 94 15 94 C15 93.34 15 92.68 15 92 Z " fill="#151314" transform="translate(151,42)"/>
<path d="M0 0 C0 15.18 0 30.36 0 46 C-0.99 45.67 -1.98 45.34 -3 45 C-3.33 31.8 -3.66 18.6 -4 5 C-5.65223447 8.30446893 -5.18459463 11.98753894 -5.203125 15.62109375 C-5.21167511 16.904645 -5.21167511 16.904645 -5.22039795 18.21412659 C-5.22985099 20.02563234 -5.23638314 21.83715532 -5.24023438 23.64868164 C-5.2499492 26.42299266 -5.28097291 29.19656578 -5.3125 31.97070312 C-5.31902909 33.72916226 -5.32427993 35.4876267 -5.328125 37.24609375 C-5.3404718 38.07741318 -5.3528186 38.9087326 -5.36553955 39.76524353 C-5.47523978 44.05460039 -5.47523978 44.05460039 -3.61029053 47.74989319 C-2.05969628 49.23456931 -2.05969628 49.23456931 0.12109375 48.890625 C0.88550781 48.67921875 1.64992187 48.4678125 2.4375 48.25 C3.19933594 48.04890625 3.96117187 47.8478125 4.74609375 47.640625 C5.48988281 47.42921875 6.23367187 47.2178125 7 47 C12.88686581 45.32799078 18.77993496 45.12783159 24.5 47.375 C27 49 27 49 29 51 C32.87527869 51.51670383 34.47657559 51.37735248 37.6875 49.0625 C38.8321875 48.0415625 38.8321875 48.0415625 40 47 C47.08036534 44.63987822 53.82504943 45.89361342 60.67578125 48.44140625 C63.43564363 49.27672421 63.43564363 49.27672421 68 48 C68 33.81 68 19.62 68 5 C67.67 18.2 67.34 31.4 67 45 C65.515 45.495 65.515 45.495 64 46 C64 30.82 64 15.64 64 0 C69 0 69 0 71.27929688 1.89257812 C73.67704163 6.2226711 73.57515423 9.8436334 73.53125 14.71875 C73.53699036 16.12199524 73.53699036 16.12199524 73.54284668 17.55358887 C73.54556288 19.52711059 73.53822219 21.50066848 73.52148438 23.47412109 C73.50007046 26.49007645 73.52129584 29.50364974 73.546875 32.51953125 C73.54423167 34.44010941 73.53910659 36.36068609 73.53125 38.28125 C73.53934692 39.18033081 73.54744385 40.07941162 73.55578613 41.0057373 C73.49323497 45.19466671 73.34769139 47.43807677 71.09887695 51.07250977 C69 53 69 53 66.88671875 53.55859375 C66.16097656 53.51863281 65.43523437 53.47867188 64.6875 53.4375 C63.89214844 53.39496094 63.09679687 53.35242188 62.27734375 53.30859375 C60 53 60 53 56.75 52 C51.19348363 50.5182623 45.71780596 50.84523232 40 51 C39.67 51.99 39.34 52.98 39 54 C35.75588389 56.28289652 32.88383882 56.39631008 29 56 C26.125 54.625 26.125 54.625 24 53 C24 52.34 24 51.68 24 51 C16.88478515 50.80740772 10.84435004 50.89404614 4 53 C0.99123727 53.16526322 -1.99022542 53.12284794 -5 53 C-5.495 53.99 -5.495 53.99 -6 55 C-6.66 54.34 -7.32 53.68 -8 53 C-8 54.32 -8 55.64 -8 57 C-8.33 57.99 -8.66 58.98 -9 60 C-7.6078125 60.0928125 -7.6078125 60.0928125 -6.1875 60.1875 C-3 61 -3 61 -1.0625 63.25 C0.17354048 66.44916359 0.17724372 67.80462419 -1 71 C-2.6441786 73.30185003 -3.74249406 73.91416469 -6.4375 74.8125 C-9.31664378 75.02316906 -10.58978936 74.51754003 -13 73 C-12.505 71.515 -12.505 71.515 -12 70 C-11.505 70.495 -11.505 70.495 -11 71 C-8.66702567 71.04092937 -6.33294775 71.04241723 -4 71 C-3.67 68.69 -3.34 66.38 -3 64 C-7.65052872 63.73067479 -7.65052872 63.73067479 -12 65 C-16.0707455 65.26693413 -18.9741606 65.3647429 -22.8125 64 C-26.66846011 60.47455075 -27.84856792 56.31427724 -28.1796875 51.25390625 C-28.18657102 48.82746643 -28.13402648 46.4224046 -28 44 C-26.35 44 -24.7 44 -23 44 C-23.33 43.34 -23.66 42.68 -24 42 C-25.66611905 41.957279 -27.33382885 41.95936168 -29 42 C-30.20561184 42.98267859 -30.20561184 42.98267859 -30.09765625 44.84765625 C-30.08605469 45.57855469 -30.07445312 46.30945313 -30.0625 47.0625 C-30.041875 48.361875 -30.02125 49.66125 -30 51 C-30.99 50.67 -31.98 50.34 -33 50 C-34.01397631 46.77371174 -34.20240769 45.43517654 -32.75 42.3125 C-31 40 -31 40 -28 38 C-31.18762365 35.87491756 -33.26512223 35.4979837 -37 35 C-38 32 -38 32 -38 25 C-30.41 25 -22.82 25 -15 25 C-15 24.34 -15 23.68 -15 23 C-17.64 23 -20.28 23 -23 23 C-23 19.37 -23 15.74 -23 12 C-20.03 12 -17.06 12 -14 12 C-14 14.64 -14 17.28 -14 20 C-13.34 20 -12.68 20 -12 20 C-12 17.36 -12 14.72 -12 12 C-11.67 12 -11.34 12 -11 12 C-11 17.61 -11 23.22 -11 29 C-10.34 29 -9.68 29 -9 29 C-9.02094727 28.26362305 -9.04189453 27.52724609 -9.06347656 26.76855469 C-9.14667144 23.42917558 -9.19867157 20.09001451 -9.25 16.75 C-9.30027344 15.01169922 -9.30027344 15.01169922 -9.3515625 13.23828125 C-9.36445312 12.12324219 -9.37734375 11.00820312 -9.390625 9.859375 C-9.41157227 8.83295898 -9.43251953 7.80654297 -9.45410156 6.74902344 C-9 4 -9 4 -7.28808594 1.63378906 C-5 0 -5 0 0 0 Z " fill="#0E0D0E" transform="translate(68,84)"/>
<path d="M0 0 C2.21186262 1.49300727 3.83968178 2.62347458 5.5 4.6875 C5.86076355 6.90849304 5.86076355 6.90849304 5.84057617 9.52612305 C5.84034958 10.5069133 5.84012299 11.48770355 5.83988953 12.49821472 C5.82440567 13.55454605 5.80892181 14.61087738 5.79296875 15.69921875 C5.78872391 16.78258011 5.78447906 17.86594147 5.78010559 18.98213196 C5.76329569 22.44667277 5.72563848 25.91063462 5.6875 29.375 C5.67245619 31.72199682 5.65876726 34.06900274 5.64648438 36.41601562 C5.61338461 42.17337505 5.56316205 47.93039617 5.5 53.6875 C4.571875 53.048125 3.64375 52.40875 2.6875 51.75 C-1.50288584 49.03857387 -4.29280241 48.53133609 -9.1875 48.5 C-10.18136719 48.48582031 -11.17523438 48.47164062 -12.19921875 48.45703125 C-14.90914588 48.6462451 -17.10414526 49.02587019 -19.70629883 49.7019043 C-20.95822021 50.02715088 -22.2101416 50.35239746 -23.5 50.6875 C-23.65208965 44.0675194 -23.75718867 37.44798876 -23.82958984 30.82666016 C-23.85976962 28.57421025 -23.900719 26.32187793 -23.95263672 24.06982422 C-24.02539682 20.83271299 -24.05944469 17.59715445 -24.0859375 14.359375 C-24.11690521 13.35195251 -24.14787292 12.34453003 -24.17977905 11.30657959 C-24.18106621 8.63484976 -24.12565483 6.28518681 -23.5 3.6875 C-17.05141088 -2.20740563 -8.04695314 -3.01760743 0 0 Z " fill="#F6F8F8" transform="translate(93.5,79.3125)"/>
<path d="M0 0 C2.4375 1.625 2.4375 1.625 4.4375 3.625 C4.67800903 5.64981079 4.67800903 5.64981079 4.66455078 8.16650391 C4.66439972 9.10732819 4.66424866 10.04815247 4.66409302 11.01748657 C4.65377045 12.03523163 4.64344788 13.05297668 4.6328125 14.1015625 C4.6299826 15.14194672 4.62715271 16.18233093 4.62423706 17.25424194 C4.61301704 20.58627694 4.58790915 23.91804586 4.5625 27.25 C4.55247256 29.50520446 4.5433463 31.76041312 4.53515625 34.015625 C4.51307178 39.55217454 4.47957639 45.08856827 4.4375 50.625 C3.51388672 50.30120361 2.59027344 49.97740723 1.63867188 49.64379883 C-4.75835397 47.60789364 -11.91660447 47.62138446 -18.1875 50 C-18.97125 50.53625 -19.755 51.0725 -20.5625 51.625 C-21.5525 52.285 -22.5425 52.945 -23.5625 53.625 C-23.71471925 46.7384882 -23.81974395 39.85241055 -23.89208984 32.96459961 C-23.92225015 30.62198678 -23.96318517 28.27948675 -24.01513672 25.93725586 C-24.08798101 22.56856459 -24.12196479 19.20136677 -24.1484375 15.83203125 C-24.17940521 14.78602249 -24.21037292 13.74001373 -24.24227905 12.66230774 C-24.24555369 5.57638801 -24.24555369 5.57638801 -22.29229736 2.85580444 C-16.07510691 -2.53379719 -7.44461932 -2.87336184 0 0 Z " fill="#FBFCFC" transform="translate(124.5625,79.375)"/>
<path d="M0 0 C1.20140625 -0.01998047 2.4028125 -0.03996094 3.640625 -0.06054688 C4.79046875 -0.05990234 5.9403125 -0.05925781 7.125 -0.05859375 C8.17945312 -0.06044678 9.23390625 -0.0622998 10.3203125 -0.06420898 C13 0.4375 13 0.4375 14.84228516 2.01538086 C16.43005631 5.33724454 16.38882417 8.01063156 16.3984375 11.6875 C16.40130768 12.38262695 16.40417786 13.07775391 16.40713501 13.79394531 C16.40917134 15.25977394 16.40367156 16.72563001 16.39111328 18.19140625 C16.3750516 20.43030777 16.39097458 22.66740437 16.41015625 24.90625 C16.40817374 26.3333373 16.4043299 27.76042349 16.3984375 29.1875 C16.39505371 30.48171875 16.39166992 31.7759375 16.38818359 33.109375 C15.98234747 36.58884545 15.48515777 38.01829334 13 40.4375 C10.6953125 40.90625 10.6953125 40.90625 8.125 40.9375 C3.57236176 41.19708025 1.26337502 42.06534581 -2 45.4375 C-2 43.7875 -2 42.1375 -2 40.4375 C-2.75925781 40.48390625 -3.51851562 40.5303125 -4.30078125 40.578125 C-5.29464844 40.61421875 -6.28851563 40.6503125 -7.3125 40.6875 C-8.29863281 40.73390625 -9.28476563 40.7803125 -10.30078125 40.828125 C-13 40.4375 -13 40.4375 -14.64379883 38.88208008 C-16.4709119 35.58867177 -16.43064846 32.60294573 -16.3984375 28.93359375 C-16.40130768 28.21389908 -16.40417786 27.49420441 -16.40713501 26.75270081 C-16.40917146 25.23559784 -16.40367086 23.71846837 -16.39111328 22.20141602 C-16.37502857 19.87912427 -16.39098654 17.55856651 -16.41015625 15.23632812 C-16.4081742 13.76041283 -16.40433132 12.28449861 -16.3984375 10.80859375 C-16.40451019 10.11479111 -16.41058289 9.42098846 -16.4168396 8.7061615 C-16.37664387 5.95369577 -16.27348965 3.89427732 -14.84228516 1.50390625 C-10.55055716 -0.98035931 -4.81186458 -0.0283962 0 0 Z " fill="#F9F8F8" transform="translate(100,30.5625)"/>
<path d="M0 0 C0 15.18 0 30.36 0 46 C-0.99 45.67 -1.98 45.34 -3 45 C-3.33 31.8 -3.66 18.6 -4 5 C-5.65223447 8.30446893 -5.18459463 11.98753894 -5.203125 15.62109375 C-5.20882507 16.47679459 -5.21452515 17.33249542 -5.22039795 18.21412659 C-5.22985099 20.02563234 -5.23638314 21.83715532 -5.24023438 23.64868164 C-5.2499492 26.42299266 -5.28097291 29.19656578 -5.3125 31.97070312 C-5.31902909 33.72916226 -5.32427993 35.4876267 -5.328125 37.24609375 C-5.3404718 38.07741318 -5.3528186 38.9087326 -5.36553955 39.76524353 C-5.47523978 44.05460039 -5.47523978 44.05460039 -3.61029053 47.74989319 C-2.05969628 49.23456931 -2.05969628 49.23456931 0.12109375 48.890625 C0.88550781 48.67921875 1.64992188 48.4678125 2.4375 48.25 C3.58025391 47.94835937 3.58025391 47.94835937 4.74609375 47.640625 C5.48988281 47.42921875 6.23367187 47.2178125 7 47 C12.88686581 45.32799078 18.77993496 45.12783159 24.5 47.375 C27 49 27 49 29 51 C32.87527869 51.51670383 34.47657559 51.37735248 37.6875 49.0625 C38.450625 48.381875 39.21375 47.70125 40 47 C47.08036534 44.63987822 53.82504943 45.89361342 60.67578125 48.44140625 C63.43564363 49.27672421 63.43564363 49.27672421 68 48 C68 33.81 68 19.62 68 5 C67.67 18.2 67.34 31.4 67 45 C65.515 45.495 65.515 45.495 64 46 C64 30.82 64 15.64 64 0 C69 0 69 0 71.27929688 1.89257812 C73.67704163 6.2226711 73.57515423 9.8436334 73.53125 14.71875 C73.53699036 16.12199524 73.53699036 16.12199524 73.54284668 17.55358887 C73.54556288 19.52711059 73.53822219 21.50066848 73.52148438 23.47412109 C73.50007046 26.49007645 73.52129584 29.50364974 73.546875 32.51953125 C73.54423167 34.44010941 73.53910659 36.36068609 73.53125 38.28125 C73.53934692 39.18033081 73.54744385 40.07941162 73.55578613 41.0057373 C73.49323497 45.19466671 73.34769139 47.43807677 71.09887695 51.07250977 C69 53 69 53 66.88671875 53.55859375 C66.16097656 53.51863281 65.43523437 53.47867188 64.6875 53.4375 C63.89214844 53.39496094 63.09679687 53.35242188 62.27734375 53.30859375 C60 53 60 53 56.75 52 C51.19348363 50.5182623 45.71780596 50.84523232 40 51 C39.67 51.99 39.34 52.98 39 54 C35.75588389 56.28289652 32.88383882 56.39631008 29 56 C26.125 54.625 26.125 54.625 24 53 C24 52.34 24 51.68 24 51 C16.88478515 50.80740772 10.84435004 50.89404614 4 53 C1.72265625 53.30859375 1.72265625 53.30859375 -0.6875 53.4375 C-1.41324219 53.47746094 -2.13898438 53.51742187 -2.88671875 53.55859375 C-6.28927413 52.6592122 -7.17130081 50.97072617 -9 48 C-9.58942261 44.67504154 -9.56077745 41.39727435 -9.53125 38.02734375 C-9.5350769 37.06727921 -9.53890381 36.10721466 -9.54284668 35.11805725 C-9.54556297 33.09326119 -9.53822166 31.06842988 -9.52148438 29.04370117 C-9.50004742 25.94435534 -9.52130789 22.84732137 -9.546875 19.74804688 C-9.54423213 17.77864072 -9.53910801 15.809236 -9.53125 13.83984375 C-9.53934692 12.91372787 -9.54744385 11.987612 -9.55578613 11.03343201 C-9.46347422 4.70435193 -9.46347422 4.70435193 -7.27929688 1.38500977 C-5 0 -5 0 0 0 Z " fill="#FAFAFB" transform="translate(68,84)"/>
<path d="M0 0 C0.33 1.98 0.66 3.96 1 6 C2.65 6.33 4.3 6.66 6 7 C6 6.34 6 5.68 6 5 C8.31 5.33 10.62 5.66 13 6 C13.33 4.02 13.66 2.04 14 0 C17.875 0.875 17.875 0.875 19 2 C19.21789186 6.11577589 19.18579188 10.23464923 19.18530273 14.35571289 C19.18748734 16.42550264 19.20563491 18.49475793 19.22460938 20.56445312 C19.22750977 22.51061523 19.22750977 22.51061523 19.23046875 24.49609375 C19.23457764 25.69419678 19.23868652 26.8922998 19.24291992 28.12670898 C19 31 19 31 17 33 C14.87695312 33.25878906 14.87695312 33.25878906 12.28125 33.265625 C11.34925781 33.26820312 10.41726562 33.27078125 9.45703125 33.2734375 C8.48121094 33.26570313 7.50539062 33.25796875 6.5 33.25 C5.03626953 33.26160156 5.03626953 33.26160156 3.54296875 33.2734375 C2.61097656 33.27085938 1.67898437 33.26828125 0.71875 33.265625 C-0.13783203 33.26336914 -0.99441406 33.26111328 -1.87695312 33.25878906 C-4 33 -4 33 -6 31 C-6.46232157 26.37144189 -6.32397889 21.71145203 -6.3125 17.0625 C-6.32861328 15.76119141 -6.34472656 14.45988281 -6.36132812 13.11914062 C-6.36197266 11.87455078 -6.36261719 10.62996094 -6.36328125 9.34765625 C-6.36626221 8.20304932 -6.36924316 7.05844238 -6.37231445 5.87915039 C-6 3 -6 3 -4.66479492 1.10327148 C-3 0 -3 0 0 0 Z " fill="#F9F9FA" transform="translate(152,84)"/>
<path d="M0 0 C1.87171875 -0.00386719 1.87171875 -0.00386719 3.78125 -0.0078125 C5.74578125 0.00378906 5.74578125 0.00378906 7.75 0.015625 C9.0596875 0.00789062 10.369375 0.00015625 11.71875 -0.0078125 C12.9665625 -0.00523437 14.214375 -0.00265625 15.5 0 C16.64984375 0.00225586 17.7996875 0.00451172 18.984375 0.00683594 C21.75 0.265625 21.75 0.265625 23.75 2.265625 C24.015625 5.453125 24.015625 5.453125 24 9.265625 C24.00773437 11.1528125 24.00773437 11.1528125 24.015625 13.078125 C23.75 16.265625 23.75 16.265625 21.75 18.265625 C18.984375 18.52441406 18.984375 18.52441406 15.5 18.53125 C13.62828125 18.53511719 13.62828125 18.53511719 11.71875 18.5390625 C9.75421875 18.52746094 9.75421875 18.52746094 7.75 18.515625 C6.4403125 18.52335937 5.130625 18.53109375 3.78125 18.5390625 C2.5334375 18.53648437 1.285625 18.53390625 0 18.53125 C-1.72476563 18.52786621 -1.72476563 18.52786621 -3.484375 18.52441406 C-6.25 18.265625 -6.25 18.265625 -8.25 16.265625 C-8.515625 13.078125 -8.515625 13.078125 -8.5 9.265625 C-8.50515625 8.0075 -8.5103125 6.749375 -8.515625 5.453125 C-8.0261473 -0.42060742 -5.14793608 0.01009965 0 0 Z " fill="#E8E7E8" transform="translate(92.25,151.734375)"/>
<path d="M0 0 C0.99 0.33 1.98 0.66 3 1 C1.43632643 4.52238047 -0.69495889 7.27123994 -3.125 10.25 C-3.84945312 11.14203125 -4.57390625 12.0340625 -5.3203125 12.953125 C-5.87460937 13.62859375 -6.42890625 14.3040625 -7 15 C-8.98 14.01 -10.96 13.02 -13 12 C-11.4050017 16.65086153 -11.4050017 16.65086153 -8 20 C-4.97915859 19.75239005 -3.4053361 19.36067329 -1.12109375 17.328125 C-0.56550781 16.64234375 -0.00992188 15.9565625 0.5625 15.25 C1.15289062 14.53328125 1.74328125 13.8165625 2.3515625 13.078125 C3.16753906 12.04945312 3.16753906 12.04945312 4 11 C4.804375 10.01 5.60875 9.02 6.4375 8 C6.953125 7.34 7.46875 6.68 8 6 C8.99 6.33 9.98 6.66 11 7 C10.835 7.70640625 10.67 8.4128125 10.5 9.140625 C9.98440867 12.08916292 9.93538198 14.76141659 10 17.75 C10.03742459 19.49959978 10.04696295 21.25063026 10 23 C9 24 9 24 6.40795898 24.11352539 C5.28204346 24.10828857 4.15612793 24.10305176 2.99609375 24.09765625 C1.78115234 24.09443359 0.56621094 24.09121094 -0.68554688 24.08789062 C-1.96494141 24.07951172 -3.24433594 24.07113281 -4.5625 24.0625 C-5.84576172 24.05798828 -7.12902344 24.05347656 -8.45117188 24.04882812 C-11.63416022 24.03699545 -14.81705762 24.02051068 -18 24 C-20.05082053 19.41347502 -20.31383215 15.85546664 -19 11 C-16.69534272 6.637613 -14.57375091 3.93113927 -10 2 C-7.62789358 1.6228959 -5.28655539 1.37754193 -2.890625 1.2109375 C-0.98994596 1.19805958 -0.98994596 1.19805958 0 0 Z " fill="#F8F6F7" transform="translate(63,45)"/>
<path d="M0 0 C0.33 0 0.66 0 1 0 C1.01417969 0.66386719 1.02835938 1.32773438 1.04296875 2.01171875 C1.27049181 8.17255195 1.27049181 8.17255195 4.5625 13.125 C5.366875 13.74375 6.17125 14.3625 7 15 C6.67 15.99 6.34 16.98 6 18 C5.34 17.34 4.68 16.68 4 16 C4 17.32 4 18.64 4 20 C3.67 20.99 3.34 21.98 3 23 C4.3921875 23.0928125 4.3921875 23.0928125 5.8125 23.1875 C9 24 9 24 10.9375 26.25 C12.17354048 29.44916359 12.17724372 30.80462419 11 34 C9.3558214 36.30185003 8.25750594 36.91416469 5.5625 37.8125 C2.68335622 38.02316906 1.41021064 37.51754003 -1 36 C-0.67 35.01 -0.34 34.02 0 33 C0.495 33.495 0.495 33.495 1 34 C3.33297433 34.04092937 5.66705225 34.04241723 8 34 C8.33 31.69 8.66 29.38 9 27 C4.34947128 26.73067479 4.34947128 26.73067479 0 28 C-4.0707455 28.26693413 -6.9741606 28.3647429 -10.8125 27 C-14.66846011 23.47455075 -15.84856792 19.31427724 -16.1796875 14.25390625 C-16.18657102 11.82746643 -16.13402648 9.4224046 -16 7 C-14.35 7 -12.7 7 -11 7 C-11.33 6.34 -11.66 5.68 -12 5 C-13.66611905 4.957279 -15.33382885 4.95936168 -17 5 C-18.20561184 5.98267859 -18.20561184 5.98267859 -18.09765625 7.84765625 C-18.08605469 8.57855469 -18.07445312 9.30945313 -18.0625 10.0625 C-18.041875 11.361875 -18.02125 12.66125 -18 14 C-18.99 13.67 -19.98 13.34 -21 13 C-21.97866614 9.88606229 -22.12975245 8.35681925 -21 5.25 C-19 3 -19 3 -15.625 1.875 C-12 2 -12 2 -9 4.125 C-7 7 -7 7 -7.1875 9.8125 C-7.455625 10.534375 -7.72375 11.25625 -8 12 C-7.21625 12.144375 -6.4325 12.28875 -5.625 12.4375 C-3 13 -3 13 -1 14 C-0.67 9.38 -0.34 4.76 0 0 Z " fill="#0F0D0D" transform="translate(56,121)"/>
<path d="M0 0 C1.32 0.33 2.64 0.66 4 1 C8.59167325 17.68581262 6.97073046 37.60824463 -1 53 C-2.32 53 -3.64 53 -5 53 C-6.05589069 51.36816893 -7.0436126 49.69207001 -8 48 C-9.91574503 45.89711278 -11.94114575 43.96734962 -14 42 C-13 39 -13 39 -12 37 C-9.03 37 -6.06 37 -3 37 C-1.8921327 33.67639811 -1.80959412 31.03994364 -1.71875 27.5390625 C-1.68136719 26.26289062 -1.64398438 24.98671875 -1.60546875 23.671875 C-1.56981525 22.32292972 -1.53466376 20.97397108 -1.5 19.625 C-1.43198157 16.99198763 -1.35821663 14.3593522 -1.28125 11.7265625 C-1.25095703 10.55689941 -1.22066406 9.38723633 -1.18945312 8.18212891 C-1.02093022 5.35155214 -0.63960381 2.75715853 0 0 Z M-6 53 C-5.34 53.66 -4.68 54.32 -4 55 C-4.66 55 -5.32 55 -6 55 C-6 54.34 -6 53.68 -6 53 Z " fill="#0E0E0F" transform="translate(172,81)"/>
<path d="M0 0 C5 0 5 0 7.28808594 1.8815918 C9.70111359 6.2771426 9.50197607 9.96067418 9.390625 14.89453125 C9.38496521 15.84188644 9.37930542 16.78924164 9.37347412 17.76530457 C9.35114084 20.78155735 9.3009498 23.79660822 9.25 26.8125 C9.22993107 28.86131093 9.21168099 30.91014054 9.1953125 32.95898438 C9.15128594 37.97311709 9.0822791 42.98635499 9 48 C8.01 48 7.02 48 6 48 C5.97494385 46.76846191 5.9498877 45.53692383 5.92407227 44.26806641 C5.83007388 39.70952507 5.72983485 35.15113882 5.62768555 30.59277344 C5.58430797 28.61787538 5.542635 26.64293913 5.50268555 24.66796875 C5.44505127 21.8332161 5.3813373 18.99865622 5.31640625 16.1640625 C5.29969376 15.27756012 5.28298126 14.39105774 5.26576233 13.47769165 C5.28914789 9.10074845 5.28914789 9.10074845 4 5 C3.67 18.2 3.34 31.4 3 45 C1.515 45.495 1.515 45.495 0 46 C0 30.82 0 15.64 0 0 Z " fill="#FDFCFD" transform="translate(132,84)"/>
<path d="M0 0 C4.27496337 2.2632159 8.0642615 5.12603579 11 9 C11 9.99 11 10.98 11 12 C10.01 12 9.02 12 8 12 C7.599021 12.88993652 7.599021 12.88993652 7.18994141 13.79785156 C5.98415007 16.02933245 4.7641905 17.4664799 2.9609375 19.234375 C2.38085938 19.80800781 1.80078125 20.38164062 1.203125 20.97265625 C0.59984375 21.55917969 -0.0034375 22.14570313 -0.625 22.75 C-1.23601562 23.35199219 -1.84703125 23.95398438 -2.4765625 24.57421875 C-3.97988624 26.05405305 -5.48934856 27.52764676 -7 29 C-14.36607143 23.10714286 -14.36607143 23.10714286 -15 19 C-12 19 -12 19 -9 21 C-9.33 20.401875 -9.66 19.80375 -10 19.1875 C-11 17 -11 17 -11 14 C-9.02 14.66 -7.04 15.32 -5 16 C-5.99 14.35 -6.98 12.7 -8 11 C-5.66666667 11 -3.33333333 11 -1 11 C-1.99 9.68 -2.98 8.36 -4 7 C-2 7 0 7 2 7 C1.484375 6.5875 0.96875 6.175 0.4375 5.75 C-0.036875 5.1725 -0.51125 4.595 -1 4 C-0.6875 1.8125 -0.6875 1.8125 0 0 Z " fill="#F4F4F4" transform="translate(156,122)"/>
<path d="M0 0 C0.69649658 0.02094727 1.39299316 0.04189453 2.1105957 0.06347656 C2.86791992 0.07636719 3.62524414 0.08925781 4.40551758 0.10253906 C5.19120117 0.13605469 5.97688477 0.16957031 6.78637695 0.20410156 C7.58366211 0.22214844 8.38094727 0.24019531 9.20239258 0.25878906 C11.16840144 0.3058791 13.13379189 0.37762258 15.09887695 0.45410156 C14.98441423 3.0174641 14.85768194 5.57923601 14.72387695 8.14160156 C14.6774707 9.22344727 14.6774707 9.22344727 14.63012695 10.32714844 C14.40893843 14.36383895 14.12271057 17.85388053 12.09887695 21.45410156 C11.10887695 21.78410156 10.11887695 22.11410156 9.09887695 22.45410156 C9.09887695 18.82410156 9.09887695 15.19410156 9.09887695 11.45410156 C5.13887695 15.41410156 1.17887695 19.37410156 -2.90112305 23.45410156 C-6.46423771 21.67254423 -8.2575778 20.28647147 -10.90112305 17.45410156 C-10.24112305 16.13410156 -9.58112305 14.81410156 -8.90112305 13.45410156 C-7.58112305 14.44410156 -6.26112305 15.43410156 -4.90112305 16.45410156 C-1.22042417 14.91766304 1.08662899 12.67259211 3.84887695 9.82910156 C5.95262695 7.66347656 5.95262695 7.66347656 8.09887695 5.45410156 C3.80887695 5.12410156 -0.48112305 4.79410156 -4.90112305 4.45410156 C-1.90112305 0.45410156 -1.90112305 0.45410156 0 0 Z " fill="#FAF9F9" transform="translate(135.901123046875,51.5458984375)"/>
<path d="M0 0 C0.33 0 0.66 0 1 0 C1.14288264 5.78408689 1.28528698 11.56818529 1.42724609 17.35229492 C1.47561677 19.32039713 1.52411865 21.28849611 1.57275391 23.2565918 C1.64259704 26.08381326 1.71196989 28.91104594 1.78125 31.73828125 C1.80312378 32.61962234 1.82499756 33.50096344 1.84753418 34.40901184 C1.86755493 35.22963608 1.88757568 36.05026031 1.90820312 36.89575195 C1.92596802 37.61745071 1.94373291 38.33914948 1.96203613 39.0827179 C1.99448624 40.72153954 2 42.36085712 2 44 C0 46 0 46 -1.91796875 46.265625 C-5.63553326 46.24003075 -8.66748108 46.10231351 -12.25 45 C-17.80651637 43.5182623 -23.28219404 43.84523232 -29 44 C-29.33 44.99 -29.66 45.98 -30 47 C-33.24411611 49.28289652 -36.11616118 49.39631008 -40 49 C-42.875 47.5 -42.875 47.5 -45 46 C-44.67 44.35 -44.34 42.7 -44 41 C-43.46375 41.495 -42.9275 41.99 -42.375 42.5 C-39.28147204 44.45380713 -37.60630834 44.51518691 -34 44 C-31.30566683 42.12802546 -31.30566683 42.12802546 -29 40 C-21.91963466 37.63987822 -15.17495057 38.89361342 -8.32421875 41.44140625 C-5.56435637 42.27672421 -5.56435637 42.27672421 -1 41 C-0.67 27.47 -0.34 13.94 0 0 Z " fill="#F3F3F3" transform="translate(137,91)"/>
<path d="M0 0 C2.5625 0.375 2.5625 0.375 4.375 2.375 C4.766875 3.035 5.15875 3.695 5.5625 4.375 C4.9025 5.035 4.2425 5.695 3.5625 6.375 C2.9025 5.715 2.2425 5.055 1.5625 4.375 C0.5725 4.045 -0.4175 3.715 -1.4375 3.375 C-1.15460528 5.62611973 -0.86085307 7.87587686 -0.5625 10.125 C-0.31886719 12.00445312 -0.31886719 12.00445312 -0.0703125 13.921875 C0.62645736 17.92949804 0.62645736 17.92949804 2.5625 21.375 C4.72531282 22.4975649 4.72531282 22.4975649 7.1875 23.125 C8.00476563 23.36734375 8.82203125 23.6096875 9.6640625 23.859375 C10.29054688 24.02953125 10.91703125 24.1996875 11.5625 24.375 C11.5625 24.705 11.5625 25.035 11.5625 25.375 C9.5825 25.375 7.6025 25.375 5.5625 25.375 C5.5625 27.025 5.5625 28.675 5.5625 30.375 C1.61272002 29.84482819 0.04707778 28.08922924 -2.5 25.125 C-3.17160156 24.35671875 -3.84320313 23.5884375 -4.53515625 22.796875 C-7.79743844 18.64366153 -9.90019881 15.77315281 -9.4375 10.375 C-7.4575 10.375 -5.4775 10.375 -3.4375 10.375 C-3.7675 9.715 -4.0975 9.055 -4.4375 8.375 C-4.625 5.375 -4.625 5.375 -4.4375 2.375 C-2.4375 0.375 -2.4375 0.375 0 0 Z " fill="#100E0F" transform="translate(41.4375,124.625)"/>
<path d="M0 0 C0.33 0 0.66 0 1 0 C1.33 11.55 1.66 23.1 2 35 C2.66 34.34 3.32 33.68 4 33 C5.98821313 32.60235737 7.98944339 32.26224651 10 32 C10 32.66 10 33.32 10 34 C8.03277992 35.38123963 6.03131672 36.71488126 4 38 C3.67 38.33 3.34 38.66 3 39 C-0.85331874 39.43787713 -2.49260386 39.36579721 -5.6875 37.0625 C-6.450625 36.381875 -7.21375 35.70125 -8 35 C-11.00778521 33.99740493 -13.53820647 33.69685358 -16.6875 33.4375 C-17.68136719 33.35371094 -18.67523438 33.26992187 -19.69921875 33.18359375 C-20.83810547 33.09271484 -20.83810547 33.09271484 -22 33 C-22 32.01 -22 31.02 -22 30 C-9.2018252 29.44085644 -9.2018252 29.44085644 -4 33 C-3.34 33.66 -2.68 34.32 -2 35 C-1.97494385 34.04633545 -1.9498877 33.0926709 -1.92407227 32.11010742 C-1.82987929 28.57090893 -1.72968769 25.03190125 -1.62768555 21.49291992 C-1.58438167 19.96138982 -1.54270333 18.42981285 -1.50268555 16.89819336 C-1.44487268 14.69630818 -1.38121031 12.49465789 -1.31640625 10.29296875 C-1.29133751 9.26625313 -1.29133751 9.26625313 -1.26576233 8.21879578 C-1.1726445 5.22879896 -0.95312563 2.85937689 0 0 Z " fill="#111212" transform="translate(100,97)"/>
<path d="M0 0 C1.32 0.33 2.64 0.66 4 1 C4.05607422 2.22976562 4.05607422 2.22976562 4.11328125 3.484375 C4.21189453 5.10085937 4.21189453 5.10085937 4.3125 6.75 C4.37050781 7.81734375 4.42851563 8.8846875 4.48828125 9.984375 C5.03903141 13.23001717 5.6481339 14.71923682 8 17 C12.65397775 17.41955355 12.65397775 17.41955355 17 16 C20.59870962 15.60883591 22.34439619 15.52158641 25.3125 17.6875 C27.20084071 20.27522616 27.84041529 21.80830587 28 25 C27.5 27.1875 27.5 27.1875 26 29 C20.11152416 31.39900867 20.11152416 31.39900867 16.5625 30.125 C16.046875 29.75375 15.53125 29.3825 15 29 C15.33 28.01 15.66 27.02 16 26 C16.33 26.33 16.66 26.66 17 27 C19.33297433 27.04092937 21.66705225 27.04241723 24 27 C24.33 24.69 24.66 22.38 25 20 C20.34947128 19.73067479 20.34947128 19.73067479 16 21 C11.9292545 21.26693413 9.0258394 21.3647429 5.1875 20 C1.33153989 16.47455075 0.15143208 12.31427724 -0.1796875 7.25390625 C-0.18657102 4.82746643 -0.13402648 2.4224046 0 0 Z " fill="#F1F0F0" transform="translate(40,128)"/>
<path d="M0 0 C2 1.375 2 1.375 4 3 C4 3.66 4 4.32 4 5 C5.98 3.35 7.96 1.7 10 0 C12.375 1.125 12.375 1.125 15 3 C15.66 4.98 16.32 6.96 17 9 C9.08 9 1.16 9 -7 9 C-4 2 -4 2 -1.8125 0.5625 C-1.214375 0.376875 -0.61625 0.19125 0 0 Z " fill="#151314" transform="translate(95,50)"/>
<path d="M0 0 C0.33 0 0.66 0 1 0 C1.66 5.28 2.32 10.56 3 16 C4.65 16 6.3 16 8 16 C8 16.66 8 17.32 8 18 C6.35 18 4.7 18 3 18 C3.33 19.32 3.66 20.64 4 22 C5.32 22.33 6.64 22.66 8 23 C8.33 21.68 8.66 20.36 9 19 C9.66 19.99 10.32 20.98 11 22 C13.05925139 22.72382467 13.05925139 22.72382467 15 23 C15 22.34 15 21.68 15 21 C15.66 21 16.32 21 17 21 C17 21.66 17 22.32 17 23 C20.96 22.505 20.96 22.505 25 22 C24.34 23.32 23.68 24.64 23 26 C19.54173658 26.05789006 16.08359707 26.09355821 12.625 26.125 C11.64015625 26.14175781 10.6553125 26.15851563 9.640625 26.17578125 C8.69960937 26.18222656 7.75859375 26.18867187 6.7890625 26.1953125 C5.48509521 26.21102295 5.48509521 26.21102295 4.15478516 26.22705078 C2 26 2 26 0 24 C-0.22705078 21.56982422 -0.22705078 21.56982422 -0.1953125 18.5546875 C-0.18886719 17.47832031 -0.18242187 16.40195313 -0.17578125 15.29296875 C-0.15902344 14.16503906 -0.14226562 13.03710938 -0.125 11.875 C-0.11597656 10.73933594 -0.10695312 9.60367188 -0.09765625 8.43359375 C-0.07403098 5.62218701 -0.04109013 2.81119702 0 0 Z M8 12 C8.66 12 9.32 12 10 12 C9.67 13.32 9.34 14.64 9 16 C8.67 14.68 8.34 13.36 8 12 Z " fill="#F6F7F7" transform="translate(146,91)"/>
<path d="M0 0 C0.625 2.3125 0.625 2.3125 1 5 C0.01 6.485 0.01 6.485 -1 8 C-7.125 8.4375 -7.125 8.4375 -10 7 C-10.66 7.66 -11.32 8.32 -12 9 C-12.99 9 -13.98 9 -15 9 C-15.66 9.66 -16.32 10.32 -17 11 C-18.625 9.3125 -18.625 9.3125 -20 7 C-19.75 4.375 -19.75 4.375 -18 2 C-15.70538219 1.1977464 -13.49189601 0.74868442 -11.09375 0.359375 C-6.86500394 -0.36645455 -4.5247462 -0.75412437 0 0 Z " fill="#0E0C0C" transform="translate(65,148)"/>
<path d="M0 0 C-0.33 1.98 -0.66 3.96 -1 6 C2.63 5.67 6.26 5.34 10 5 C9.67 5.99 9.34 6.98 9 8 C5.7 8 2.4 8 -1 8 C-1 11.63 -1 15.26 -1 19 C1.64 19 4.28 19 7 19 C7 19.66 7 20.32 7 21 C-0.59 21 -8.18 21 -16 21 C-15.67 20.34 -15.34 19.68 -15 19 C-11.37 19 -7.74 19 -4 19 C-4.04125 17.30875 -4.0825 15.6175 -4.125 13.875 C-4.24163445 9.09298756 -3.61312338 6.83937013 -2 2 C-6.62 2 -11.24 2 -16 2 C-16 1.34 -16 0.68 -16 0 C-14.08416353 -0.1958009 -12.16727461 -0.38132214 -10.25 -0.5625 C-8.64898437 -0.71912109 -8.64898437 -0.71912109 -7.015625 -0.87890625 C-4.35858796 -0.98560074 -2.50039428 -0.81930395 0 0 Z " fill="#0E0B0C" transform="translate(46,88)"/>
<path d="M0 0 C2.35055139 1.54001643 2.90737836 2.76535851 3.9375 5.375 C4 8 4 8 2.4375 10.8125 C0 13 0 13 -3 13.625 C-6 13 -6 13 -8.4375 10.8125 C-10 8 -10 8 -9.9375 5.375 C-7.88828636 0.18365877 -5.54148729 -0.69268591 0 0 Z " fill="#141210" transform="translate(103,36)"/>
<path d="M0 0 C0.639375 0.86625 1.27875 1.7325 1.9375 2.625 C4.64380422 5.24733697 4.64380422 5.24733697 7.1953125 4.921875 C9.5115492 4.38677081 11.74014013 3.73576833 14 3 C17.05589201 2.10692619 19.81527022 1.83677386 23 1.8125 C23.845625 1.79832031 24.69125 1.78414062 25.5625 1.76953125 C28.15408616 2.01456904 29.77024992 2.69415099 32 4 C31.67 4.99 31.34 5.98 31 7 C29.71416016 6.96519531 29.71416016 6.96519531 28.40234375 6.9296875 C22.12226611 6.83056564 17.03046744 7.14447156 11 9 C3.10053822 9.81396481 3.10053822 9.81396481 0.21484375 7.6796875 C-1 6 -1 6 -0.6875 2.8125 C-0.460625 1.884375 -0.23375 0.95625 0 0 Z " fill="#F5F4F5" transform="translate(61,128)"/>
<path d="M0 0 C3.96 0 7.92 0 12 0 C12 3.63 12 7.26 12 11 C8.04 11 4.08 11 0 11 C0 7.37 0 3.74 0 0 Z " fill="#FDFCFD" transform="translate(30,95)"/>
<path d="M0 0 C9.24 0 18.48 0 28 0 C28 1.32 28 2.64 28 4 C18.76 4 9.52 4 0 4 C0 2.68 0 1.36 0 0 Z " fill="#F7F7F7" transform="translate(86,141)"/>
<path d="M0 0 C3.96 0 7.92 0 12 0 C12 2.64 12 5.28 12 8 C9.77109005 9.11445498 8.46944894 9.16480286 6 9.1875 C4.948125 9.20876953 4.948125 9.20876953 3.875 9.23046875 C2 9 2 9 0 7 C-0.125 3.375 -0.125 3.375 0 0 Z " fill="#F9F7F8" transform="translate(30,109)"/>
<path d="M0 0 C2.97 0 5.94 0 9 0 C9 3.63 9 7.26 9 11 C6.03 11 3.06 11 0 11 C0 7.37 0 3.74 0 0 Z " fill="#FCFAFB" transform="translate(45,96)"/>
<path d="M0 0 C0.66 0.33 1.32 0.66 2 1 C2 15.19 2 29.38 2 44 C-0.475 44.495 -0.475 44.495 -3 45 C-2.67657623 44.42699158 -2.35315247 43.85398315 -2.01992798 43.26361084 C-0.95071234 40.89061181 -0.72894597 39.36308228 -0.68115234 36.78222656 C-0.66128265 35.96167786 -0.64141296 35.14112915 -0.62094116 34.29571533 C-0.60938995 33.41953552 -0.59783875 32.54335571 -0.5859375 31.640625 C-0.56657135 30.73624695 -0.5472052 29.8318689 -0.5272522 28.90008545 C-0.46756169 26.01681901 -0.42111314 23.13351242 -0.375 20.25 C-0.33681053 18.29295152 -0.29775823 16.33591967 -0.2578125 14.37890625 C-0.16186875 9.58607289 -0.07779873 4.79316085 0 0 Z " fill="#0C0C0C" transform="translate(135,88)"/>
<path d="M0 0 C1.65 0.33 3.3 0.66 5 1 C5.33 1.99 5.66 2.98 6 4 C4.78515625 5.82421875 4.78515625 5.82421875 3.0625 7.6875 C2.49660156 8.31011719 1.93070313 8.93273438 1.34765625 9.57421875 C0.90292969 10.04472656 0.45820312 10.51523438 0 11 C-3.14330223 10.6507442 -4.79491452 10.16074267 -7.3125 8.1875 C-9 6 -9 6 -9 2 C-6.83125748 2.50603992 -5.00032373 2.99983813 -3 4 C-2.01 2.68 -1.02 1.36 0 0 Z " fill="#181718" transform="translate(59,55)"/>
<path d="M0 0 C7.59 0 15.18 0 23 0 C18.57192871 4.42807129 17.6335664 5.15978448 11.75 5.3125 C6.49991832 5.2849043 3.89856592 4.47709933 0 1 C0 0.67 0 0.34 0 0 Z " fill="#F9F9F9" transform="translate(47,72)"/>
<path d="M0 0 C0.33 0 0.66 0 1 0 C1.14288264 5.78408689 1.28528698 11.56818529 1.42724609 17.35229492 C1.47561677 19.32039713 1.52411865 21.28849611 1.57275391 23.2565918 C1.64259704 26.08381326 1.71196989 28.91104594 1.78125 31.73828125 C1.80312378 32.61962234 1.82499756 33.50096344 1.84753418 34.40901184 C1.86755493 35.22963608 1.88757568 36.05026031 1.90820312 36.89575195 C1.92596802 37.61745071 1.94373291 38.33914948 1.96203613 39.0827179 C1.99448624 40.72153954 2 42.36085712 2 44 C0 46 0 46 -2.1640625 46.1953125 C-2.97617188 46.17210937 -3.78828125 46.14890625 -4.625 46.125 C-5.44226563 46.10695312 -6.25953125 46.08890625 -7.1015625 46.0703125 C-7.72804687 46.04710937 -8.35453125 46.02390625 -9 46 C-8.67 44.68 -8.34 43.36 -8 42 C-4.535 41.505 -4.535 41.505 -1 41 C-0.67 27.47 -0.34 13.94 0 0 Z " fill="#CFCFCF" transform="translate(137,91)"/>
<path d="M0 0 C0.33 0 0.66 0 1 0 C1.01417969 0.66386719 1.02835938 1.32773438 1.04296875 2.01171875 C1.27049181 8.17255195 1.27049181 8.17255195 4.5625 13.125 C5.366875 13.74375 6.17125 14.3625 7 15 C6.67 15.99 6.34 16.98 6 18 C5.34 17.34 4.68 16.68 4 16 C3.34 16.99 2.68 17.98 2 19 C1.67 18.67 1.34 18.34 1 18 C0.67 19.32 0.34 20.64 0 22 C-2 21 -2 21 -2.875 18.625 C-4.13500471 15.68498901 -5.33889875 14.68536412 -8 13 C-7.01 12.67 -6.02 12.34 -5 12 C-3.68 12.66 -2.36 13.32 -1 14 C-0.67 9.38 -0.34 4.76 0 0 Z " fill="#1A1818" transform="translate(56,121)"/>
<path d="M0 0 C0.70125 0.00515625 1.4025 0.0103125 2.125 0.015625 C2.82625 0.01046875 3.5275 0.0053125 4.25 0 C6.125 0.265625 6.125 0.265625 8.125 2.265625 C8.125 3.915625 8.125 5.565625 8.125 7.265625 C4.165 7.265625 0.205 7.265625 -3.875 7.265625 C-3.875 0.54895833 -3.875 0.54895833 0 0 Z " fill="#F2F1F2" transform="translate(33.875,79.734375)"/>
<path d="M0 0 C2.97 0 5.94 0 9 0 C9.04241723 2.33294775 9.04092937 4.66702567 9 7 C8 8 8 8 4.5 8.125 C1 8 1 8 0 7 C-0.04092937 4.66702567 -0.04241723 2.33294775 0 0 Z " fill="#D6D6D6" transform="translate(45,110)"/>
<path d="M0 0 C1.12894876 0.93274109 2.25300876 1.87140122 3.375 2.8125 C4.00148437 3.33457031 4.62796875 3.85664063 5.2734375 4.39453125 C7 6 7 6 9 9 C4.87831311 10.62950412 2.29299643 11.26264601 -2 10 C-1.125 2.25 -1.125 2.25 0 0 Z " fill="#F8F8F8" transform="translate(138,145)"/>
<path d="M0 0 C0.33 0 0.66 0 1 0 C1.33 1.65 1.66 3.3 2 5 C3.65 5 5.3 5 7 5 C7 6.32 7 7.64 7 9 C6.34 9 5.68 9 5 9 C5 9.66 5 10.32 5 11 C5.66 11 6.32 11 7 11 C7 12.65 7 14.3 7 16 C5.35 16 3.7 16 2 16 C-0.27141454 10.60539047 -0.20413361 5.73842251 0 0 Z " fill="#E7E8E8" transform="translate(147,91)"/>
<path d="M0 0 C0.99 0 1.98 0 3 0 C3 7.26 3 14.52 3 22 C2.01 22.33 1.02 22.66 0 23 C0 15.41 0 7.82 0 0 Z " fill="#0C0D0D" transform="translate(143,92)"/>
<path d="M0 0 C3.5 0.125 3.5 0.125 4.5 1.125 C4.54080783 3.12458364 4.54254356 5.12545254 4.5 7.125 C1.53 7.125 -1.44 7.125 -4.5 7.125 C-4.54254356 5.12545254 -4.54080783 3.12458364 -4.5 1.125 C-3.5 0.125 -3.5 0.125 0 0 Z " fill="#EAE8E9" transform="translate(49.5,86.875)"/>
<path d="M0 0 C1.9375 1.875 1.9375 1.875 3 4 C3 4.99 3 5.98 3 7 C2.34 7 1.68 7 1 7 C0.566875 6.175 0.13375 5.35 -0.3125 4.5 C-0.869375 3.675 -1.42625 2.85 -2 2 C-4.58517587 1.49940084 -4.58517587 1.49940084 -7 2 C-8.20561184 2.98267859 -8.20561184 2.98267859 -8.09765625 4.84765625 C-8.08605469 5.57855469 -8.07445312 6.30945313 -8.0625 7.0625 C-8.041875 8.361875 -8.02125 9.66125 -8 11 C-8.99 10.67 -9.98 10.34 -11 10 C-12.03321725 6.71249056 -12.20141923 5.42202124 -10.6875 2.25 C-7.53535786 -1.95285619 -4.8690778 -1.11049143 0 0 Z " fill="#F4F2F3" transform="translate(46,124)"/>
<path d="M0 0 C3.68266103 0.59950296 7.34543185 1.24758891 11 2 C11 2.33 11 2.66 11 3 C9.02 3 7.04 3 5 3 C5 4.65 5 6.3 5 8 C2.13275314 7.42655063 1.1385485 7.1385485 -1 5 C-0.625 2.375 -0.625 2.375 0 0 Z " fill="#1C191A" transform="translate(42,147)"/>
<path d="M0 0 C0.99 0.33 1.98 0.66 3 1 C3 2.32 3 3.64 3 5 C4.32 5.66 5.64 6.32 7 7 C6 8 6 8 2.4375 8.0625 C1.303125 8.041875 0.16875 8.02125 -1 8 C-1.66 6.68 -2.32 5.36 -3 4 C-2.01 2.68 -1.02 1.36 0 0 Z " fill="#1C1A1B" transform="translate(49,138)"/>
<path d="M0 0 C2.5625 0.375 2.5625 0.375 4.375 2.375 C4.766875 3.035 5.15875 3.695 5.5625 4.375 C4.9025 5.035 4.2425 5.695 3.5625 6.375 C2.9025 5.715 2.2425 5.055 1.5625 4.375 C0.5725 4.045 -0.4175 3.715 -1.4375 3.375 C-1.4375 5.685 -1.4375 7.995 -1.4375 10.375 C-2.4275 9.715 -3.4175 9.055 -4.4375 8.375 C-4.75 5.375 -4.75 5.375 -4.4375 2.375 C-2.4375 0.375 -2.4375 0.375 0 0 Z " fill="#191718" transform="translate(41.4375,124.625)"/>
<path d="M0 0 C0.66 0.66 1.32 1.32 2 2 C1.625 4.625 1.625 4.625 1 7 C-3 7 -3 7 -6 5 C-5.67 3.68 -5.34 2.36 -5 1 C-2.625 0.375 -2.625 0.375 0 0 Z " fill="#2A282A" transform="translate(64,148)"/>
<path d="M0 0 C1.63001953 0.01353516 1.63001953 0.01353516 3.29296875 0.02734375 C4.12441406 0.03894531 4.95585938 0.05054687 5.8125 0.0625 C5.4825 1.0525 5.1525 2.0425 4.8125 3.0625 C-0.6325 3.5575 -0.6325 3.5575 -6.1875 4.0625 C-6.1875 3.4025 -6.1875 2.7425 -6.1875 2.0625 C-7.8375 2.3925 -9.4875 2.7225 -11.1875 3.0625 C-7.77577281 -0.34922719 -4.59805191 -0.04944142 0 0 Z " fill="#181818" transform="translate(116.1875,126.9375)"/>
<path d="M0 0 C3.96 0 7.92 0 12 0 C12.33 0.99 12.66 1.98 13 3 C8.38 3 3.76 3 -1 3 C-0.67 2.01 -0.34 1.02 0 0 Z " fill="#171918" transform="translate(94,63)"/>
<path d="M0 0 C1 3 1 3 0.5 5.0625 C-1.8372644 8.08146651 -4.33257662 8.36768562 -8 9 C-10.4375 8.125 -10.4375 8.125 -12 7 C-11.67 6.01 -11.34 5.02 -11 4 C-10.67 4.33 -10.34 4.66 -10 5 C-6.58428147 5.50031206 -6.58428147 5.50031206 -3 5 C-0.99135641 2.6273026 -0.99135641 2.6273026 0 0 Z " fill="#E5E3E4" transform="translate(67,150)"/>
<path d="M0 0 C0.33 0.99 0.66 1.98 1 3 C-1.97 3 -4.94 3 -8 3 C-8.0825 4.11375 -8.165 5.2275 -8.25 6.375 C-9 10 -9 10 -11.0625 11.4375 C-12.0215625 11.7159375 -12.0215625 11.7159375 -13 12 C-13 11.34 -13 10.68 -13 10 C-12.34 10 -11.68 10 -11 10 C-11 7.36 -11 4.72 -11 2 C-7.37 2 -3.74 2 0 2 C0 1.34 0 0.68 0 0 Z " fill="#1C1A1B" transform="translate(53,107)"/>
<path d="M0 0 C0.7425 0.0825 1.485 0.165 2.25 0.25 C2.58 0.91 2.91 1.57 3.25 2.25 C1.6 2.58 -0.05 2.91 -1.75 3.25 C-2.08218192 6.25259517 -2.08218192 6.25259517 -0.25 7.9375 C0.4925 8.5871875 0.4925 8.5871875 1.25 9.25 C-0.4 9.25 -2.05 9.25 -3.75 9.25 C-4.08 8.59 -4.41 7.93 -4.75 7.25 C-4.42 6.59 -4.09 5.93 -3.75 5.25 C-4.74 4.92 -5.73 4.59 -6.75 4.25 C-3.42692308 0.31153846 -3.42692308 0.31153846 0 0 Z " fill="#151314" transform="translate(60.75,146.75)"/>
<path d="M0 0 C1.1446875 0.3403125 1.1446875 0.3403125 2.3125 0.6875 C1.3225 2.1725 1.3225 2.1725 0.3125 3.6875 C0.3125 3.0275 0.3125 2.3675 0.3125 1.6875 C-3.01651247 3.90684164 -3.43773244 5.03433329 -4.6875 8.6875 C-5.3475 8.3575 -6.0075 8.0275 -6.6875 7.6875 C-6.32553085 5.00892828 -5.94762724 3.07769086 -4.4375 0.8125 C-2.6875 -0.3125 -2.6875 -0.3125 0 0 Z " fill="#1D1C19" transform="translate(99.6875,36.3125)"/>
<path d="M0 0 C2.475 0.495 2.475 0.495 5 1 C5 2.65 5 4.3 5 6 C3.35 6 1.7 6 0 6 C0 4.02 0 2.04 0 0 Z " fill="#3C3A3C" transform="translate(106,158)"/>
<path d="M0 0 C3.84280285 1.24631444 6.07319896 2.36048692 8 6 C7.6875 8.25 7.6875 8.25 7 10 C5 9 5 9 4.125 6.625 C2.86499529 3.68498901 1.66110125 2.68536412 -1 1 C-0.67 0.67 -0.34 0.34 0 0 Z " fill="#CBC9CA" transform="translate(49,133)"/>
<path d="M0 0 C2.475 0.495 2.475 0.495 5 1 C5.33 1.99 5.66 2.98 6 4 C4.625 5.5 4.625 5.5 3 7 C2.34 7 1.68 7 1 7 C0.67 4.69 0.34 2.38 0 0 Z " fill="#090909" transform="translate(59,55)"/>
<path d="M0 0 C0.99 0 1.98 0 3 0 C3.33 0.66 3.66 1.32 4 2 C4.66 2.33 5.32 2.66 6 3 C4.02 3.99 4.02 3.99 2 5 C2 5.99 2 6.98 2 8 C0.68 7.01 -0.64 6.02 -2 5 C-1.125 1.125 -1.125 1.125 0 0 Z " fill="#1F1D1E" transform="translate(51,155)"/>
<path d="M0 0 C0.66 0.33 1.32 0.66 2 1 C0.02 3.97 0.02 3.97 -2 7 C-3.65 6.67 -5.3 6.34 -7 6 C-7 5.34 -7 4.68 -7 4 C-1.7265625 0.77734375 -1.7265625 0.77734375 0 0 Z " fill="#F0F0F0" transform="translate(60,26)"/>
<path d="M0 0 C1.65 1.65 3.3 3.3 5 5 C4.34 5 3.68 5 3 5 C3 5.66 3 6.32 3 7 C1.68 6.34 0.36 5.68 -1 5 C-1 1 -1 1 0 0 Z " fill="#F2F0F1" transform="translate(127,65)"/>
<path d="M0 0 C0.33 0 0.66 0 1 0 C1 1.98 1 3.96 1 6 C-0.65 6.33 -2.3 6.66 -4 7 C-4 6.34 -4 5.68 -4 5 C-4.66 4.67 -5.32 4.34 -6 4 C-4.35 3.67 -2.7 3.34 -1 3 C-0.67 2.01 -0.34 1.02 0 0 Z " fill="#FBFAFA" transform="translate(41,111)"/>
<path d="M0 0 C1.65 0 3.3 0 5 0 C5 1.65 5 3.3 5 5 C3.35 5 1.7 5 0 5 C0 3.35 0 1.7 0 0 Z " fill="#201F22" transform="translate(163,109)"/>
<path d="M0 0 C0.99 0 1.98 0 3 0 C3.33 0.99 3.66 1.98 4 3 C1.03 5.475 1.03 5.475 -2 8 C-2.20086443 4.28400809 -2.1519437 3.22791555 0 0 Z " fill="#EFF1F0" transform="translate(100,68)"/>
<path d="M0 0 C1.65 0 3.3 0 5 0 C5 1.65 5 3.3 5 5 C3.35 4.67 1.7 4.34 0 4 C0 2.68 0 1.36 0 0 Z " fill="#1A1B1B" transform="translate(156,109)"/>
<path d="M0 0 C1.65 0 3.3 0 5 0 C5 1.65 5 3.3 5 5 C3.35 4.67 1.7 4.34 0 4 C0 2.68 0 1.36 0 0 Z " fill="#1C1D1D" transform="translate(149,109)"/>
<path d="M0 0 C1.65 0.99 3.3 1.98 5 3 C4.01 4.32 3.02 5.64 2 7 C0.4375 5.75 0.4375 5.75 -1 4 C-0.6875 1.8125 -0.6875 1.8125 0 0 Z " fill="#E1E1E1" transform="translate(156,122)"/>
<path d="M0 0 C0.66 0.66 1.32 1.32 2 2 C-0.31 4.31 -2.62 6.62 -5 9 C-5.33 8.01 -5.66 7.02 -6 6 C-4.02 4.02 -2.04 2.04 0 0 Z " fill="#F5F4F5" transform="translate(134,156)"/>
<path d="M0 0 C0.66 0 1.32 0 2 0 C2 2.64 2 5.28 2 8 C1.01 7.67 0.02 7.34 -1 7 C-1.04254356 5.00045254 -1.04080783 2.99958364 -1 1 C-0.67 0.67 -0.34 0.34 0 0 Z " fill="#D2D2D4" transform="translate(162,81)"/>
<path d="M0 0 C1.65 0 3.3 0 5 0 C4.67 1.65 4.34 3.3 4 5 C3.01 5.33 2.02 5.66 1 6 C0.67 4.02 0.34 2.04 0 0 Z " fill="#F0EFEF" transform="translate(98,49)"/>
<path d="M0 0 C2.31 0 4.62 0 7 0 C7 0.99 7 1.98 7 3 C4.69 3 2.38 3 0 3 C0 2.01 0 1.02 0 0 Z " fill="#1F1D1E" transform="translate(32,111)"/>
<path d="M0 0 C1.9375 0.375 1.9375 0.375 4 1 C4.33 1.66 4.66 2.32 5 3 C4.67 3.99 4.34 4.98 4 6 C2.68 5.34 1.36 4.68 0 4 C0 2.68 0 1.36 0 0 Z " fill="#0E0E0E" transform="translate(50,57)"/>
<path d="M0 0 C2.0625 0.4375 2.0625 0.4375 4 1 C4 1.99 4 2.98 4 4 C2.68 4.33 1.36 4.66 0 5 C-0.5625 3.0625 -0.5625 3.0625 -1 1 C-0.67 0.67 -0.34 0.34 0 0 Z " fill="#E0DFDF" transform="translate(59,149)"/>
<path d="M0 0 C1.65 0 3.3 0 5 0 C5 1.32 5 2.64 5 4 C3.35 4 1.7 4 0 4 C0 2.68 0 1.36 0 0 Z " fill="#151717" transform="translate(156,103)"/>
<path d="M0 0 C1.65 0 3.3 0 5 0 C5 1.32 5 2.64 5 4 C3.35 4 1.7 4 0 4 C0 2.68 0 1.36 0 0 Z " fill="#101312" transform="translate(149,103)"/>
<path d="M0 0 C1.65 0 3.3 0 5 0 C5 1.32 5 2.64 5 4 C3.35 4 1.7 4 0 4 C0 2.68 0 1.36 0 0 Z " fill="#121214" transform="translate(163,103)"/>
<path d="M0 0 C1.65 0 3.3 0 5 0 C5 1.32 5 2.64 5 4 C3.35 4 1.7 4 0 4 C0 2.68 0 1.36 0 0 Z " fill="#151817" transform="translate(156,96)"/>
<path d="M0 0 C1.65 0 3.3 0 5 0 C5 1.32 5 2.64 5 4 C3.35 4 1.7 4 0 4 C0 2.68 0 1.36 0 0 Z " fill="#0F1211" transform="translate(149,96)"/>
<path d="M0 0 C1.65 0 3.3 0 5 0 C5 1.32 5 2.64 5 4 C3.35 4 1.7 4 0 4 C0 2.68 0 1.36 0 0 Z " fill="#121215" transform="translate(163,96)"/>
<path d="M0 0 C0.66 0.33 1.32 0.66 2 1 C2 2.98 2 4.96 2 7 C1.01 7 0.02 7 -1 7 C-1.04254356 5.00045254 -1.04080783 2.99958364 -1 1 C-0.67 0.67 -0.34 0.34 0 0 Z " fill="#F5F6F6" transform="translate(155,81)"/>
<path d="M0 0 C2.31 0 4.62 0 7 0 C6.67 0.99 6.34 1.98 6 3 C4.02 3 2.04 3 0 3 C0 2.01 0 1.02 0 0 Z " fill="#FBFAFB" transform="translate(48,146)"/>
<path d="M0 0 C1.65 1.65 3.3 3.3 5 5 C1 5 1 5 -0.75 3.5 C-1.1625 3.005 -1.575 2.51 -2 2 C-1.34 1.34 -0.68 0.68 0 0 Z " fill="#1B1B1B" transform="translate(147,133)"/>
<path d="M0 0 C1.65 1.65 3.3 3.3 5 5 C1 5 1 5 -0.75 3.5 C-1.1625 3.005 -1.575 2.51 -2 2 C-1.34 1.34 -0.68 0.68 0 0 Z " fill="#212121" transform="translate(151,129)"/>
<path d="M0 0 C0.66 0 1.32 0 2 0 C2.33 2.64 2.66 5.28 3 8 C2.01 7.67 1.02 7.34 0 7 C-1.125 2.25 -1.125 2.25 0 0 Z " fill="#CFCDCE" transform="translate(35,127)"/>
<path d="M0 0 C0.99 0.33 1.98 0.66 3 1 C-0.96 4.465 -0.96 4.465 -5 8 C-5.66 7.67 -6.32 7.34 -7 7 C-4.69 4.69 -2.38 2.38 0 0 Z " fill="#F2F0F2" transform="translate(68,55)"/>
<path d="M0 0 C0.99 0.33 1.98 0.66 3 1 C2.67 2.32 2.34 3.64 2 5 C1.01 5 0.02 5 -1 5 C-1.33 4.01 -1.66 3.02 -2 2 C-1.34 1.34 -0.68 0.68 0 0 Z " fill="#E9E8E8" transform="translate(49,138)"/>
<path d="M0 0 C0 0.66 0 1.32 0 2 C-1.98 2.99 -3.96 3.98 -6 5 C-6 3.68 -6 2.36 -6 1 C-3.92446352 0.4465236 -2.15634036 0 0 0 Z " fill="#090909" transform="translate(110,129)"/>
<path d="M0 0 C0.33 0 0.66 0 1 0 C1 2.64 1 5.28 1 8 C1.66 8 2.32 8 3 8 C2.67 9.32 2.34 10.64 2 12 C0 10 0 10 -0.1953125 7.6171875 C-0.17210938 6.71226563 -0.14890625 5.80734375 -0.125 4.875 C-0.10695313 3.96492188 -0.08890625 3.05484375 -0.0703125 2.1171875 C-0.04710938 1.41851562 -0.02390625 0.71984375 0 0 Z " fill="#E5E6E6" transform="translate(96,121)"/>
<path d="M0 0 C0.33 0 0.66 0 1 0 C1 1.98 1 3.96 1 6 C0.01 6.33 -0.98 6.66 -2 7 C-2.125 4.625 -2.125 4.625 -2 2 C-1.34 1.34 -0.68 0.68 0 0 Z " fill="#060706" transform="translate(159,82)"/>
</svg>
